<svg width="111" height="55" viewBox="0 0 111 55" fill="none" xmlns="http://www.w3.org/2000/svg">
<path d="M44.7954 26.9353V27.7635L38.8503 27.586V37.6424H41.9263L47.4278 35.9565L47.132 38.2044H35.7446V37.9086L36.6024 37.6424V17.5888L35.7446 17.293V17.0268H46.8362L47.132 19.2747L41.6601 17.5888H38.8503V26.9353H44.7954Z" fill="black"/>
<path d="M64.706 38.2044V37.9086L65.5638 37.6424V17.5888L64.706 17.293V17.0268H68.6694V17.293L67.8117 17.5888V26.4325L74.6737 17.5888L73.9934 17.293V17.0268H76.4188V17.293L75.4131 17.5888L71.1835 22.9719L76.892 37.6424L77.8385 37.9086V38.2044H73.7272V37.9086L74.4666 37.6424L69.5863 25.0424L67.8117 27.2903V37.6424L68.6694 37.9086V38.2044H64.706Z" fill="black"/>
<circle cx="55.5" cy="27.4209" r="26.9209" stroke="black"/>
<circle cx="82.6128" cy="27.4209" r="26.9209" stroke="black"/>
<circle cx="28.3872" cy="27.4209" r="26.9209" stroke="black"/>
</svg>
